<svg xmlns="http://www.w3.org/2000/svg" width="480" height="480" viewBox="0 0 480 480" version="1.1">
	<path d="M 5.763 1.565 C -0.440 4.931, -0 -13.265, 0 240 C 0 444.612, 0.174 471.436, 1.517 474.033 C 4.847 480.473, -14.059 480, 240 480 C 495.511 480, 474.697 480.568, 478.880 473.479 L 481 469.886 481 238.384 C 481 96.277, 480.642 7.103, 480.072 7.456 C 479.562 7.771, 478.846 7.091, 478.483 5.946 C 478.119 4.800, 476.399 2.995, 474.661 1.935 C 471.563 0.046, 466.861 0.008, 240 0.044 C 37.182 0.076, 8.161 0.264, 5.763 1.565 M 0.492 240 C 0.492 367.875, 0.608 420.188, 0.750 356.250 C 0.892 292.313, 0.892 187.688, 0.750 123.750 C 0.608 59.813, 0.492 112.125, 0.492 240 M 122.630 86.454 C 121.326 87.861, 119.981 90.697, 119.641 92.756 C 118.832 97.648, 118.832 382.352, 119.641 387.244 C 119.981 389.303, 121.305 392.116, 122.582 393.494 L 124.905 396 188.901 396 C 257.975 396, 266.029 395.545, 285.140 390.558 C 320.072 381.443, 340.733 362.439, 351.524 329.497 C 357.371 311.648, 359.052 299.304, 359.897 268 C 360.864 232.244, 359.718 186.478, 357.557 174.500 C 349.345 128.991, 328.488 103.648, 289 91.199 C 268.395 84.703, 267.302 84.624, 192.750 84.243 L 125 83.897 122.630 86.454 M 164 240.080 L 164 358.161 208.750 357.733 C 249.698 357.342, 254.300 357.127, 262.920 355.196 C 293.229 348.408, 308.241 331.177, 313.618 297.004 C 315.686 283.862, 316.635 223.898, 315.124 201.844 C 311.602 150.445, 293.095 128.573, 248.500 123.109 C 243.401 122.484, 223.139 122.004, 201.750 122.003 L 164 122 164 240.080" stroke="none" fill="black" fill-rule="evenodd"/>
</svg>